<?xml version="1.0" encoding="utf-8"?>
<!-- Generator: Adobe Illustrator 13.0.0, SVG Export Plug-In . SVG Version: 6.00 Build 14948)  -->
<!DOCTYPE svg PUBLIC "-//W3C//DTD SVG 1.1//EN" "http://www.w3.org/Graphics/SVG/1.1/DTD/svg11.dtd">
<svg xmlns="http://www.w3.org/2000/svg" xmlns:xlink="http://www.w3.org/1999/xlink" version="1.1" id="Layer_1" x="0px" y="0px" width="226.771px" height="141.732px" viewBox="0 0 226.771 141.732" xml:space="preserve">
<g>
	<polygon fill="#D9D9D9" points="7.639,55.929 34.392,130.684 153.175,10.782  "/>
	<g>
		<path fill="#BFBFBF" d="M93.317,105.596h-3.582v7.008h-3.634V93.985h7.216c3.844,0,6.145,2.642,6.145,5.805    C99.462,102.954,97.161,105.596,93.317,105.596z M93.135,97.228h-3.399v5.099h3.399c1.647,0,2.693-1.019,2.693-2.536    S94.782,97.228,93.135,97.228z"/>
		<path fill="#BFBFBF" d="M107.516,112.76c-3.817,0-6.852-2.589-6.852-6.536V93.985h3.636v12.105c0,2.146,1.255,3.427,3.216,3.427    s3.243-1.281,3.243-3.427V93.985h3.607v12.237C114.366,110.172,111.333,112.76,107.516,112.76z"/>
		<path fill="#BFBFBF" d="M124.643,112.604h-7.792V93.985h7.479c3.636,0,5.752,2.04,5.752,5.229c0,2.065-1.358,3.4-2.301,3.846    c1.124,0.522,2.562,1.698,2.562,4.183C130.344,110.721,127.965,112.604,124.643,112.604z M124.041,97.228h-3.556v4.289h3.556    c1.543,0,2.406-0.863,2.406-2.146S125.584,97.228,124.041,97.228z M124.277,104.785h-3.792v4.575h3.792    c1.646,0,2.431-1.046,2.431-2.301C126.708,105.803,125.925,104.785,124.277,104.785z"/>
		<path fill="#BFBFBF" d="M132.486,112.604V93.985h3.636v15.375h8.445v3.243L132.486,112.604L132.486,112.604z"/>
		<path fill="#BFBFBF" d="M145.953,112.604V93.985h3.635v18.618L145.953,112.604L145.953,112.604z"/>
		<path fill="#BFBFBF" d="M158.583,112.76c-1.986,0-3.661-0.681-5.021-2.039c-0.812-0.812-1.309-1.753-1.517-2.799    c-0.211-1.046-0.313-2.589-0.313-4.629s0.104-3.582,0.313-4.628c0.208-1.072,0.704-1.987,1.517-2.798    c1.358-1.359,3.033-2.039,5.021-2.039c3.582,0,6.224,2.092,6.853,5.883h-3.688c-0.392-1.595-1.386-2.641-3.138-2.641    c-0.994,0-1.779,0.312-2.327,0.968c-0.759,0.812-0.915,1.646-0.915,5.255c0,3.609,0.156,4.446,0.915,5.256    c0.548,0.654,1.333,0.969,2.327,0.969c1.752,0,2.746-1.047,3.138-2.642h3.688C164.806,110.668,162.14,112.76,158.583,112.76z"/>
		<path fill="#BFBFBF" d="M167.003,112.604V93.985h3.636v18.618L167.003,112.604L167.003,112.604z"/>
		<path fill="#BFBFBF" d="M185.046,110.826c-1.229,1.228-2.98,1.777-4.917,1.777h-6.72V93.985h6.72c1.937,0,3.688,0.55,4.917,1.777    c2.093,2.093,1.883,4.654,1.883,7.452C186.928,106.014,187.138,108.733,185.046,110.826z M182.51,98.379    c-0.628-0.758-1.465-1.15-2.722-1.15h-2.745v12.133h2.745c1.257,0,2.094-0.393,2.722-1.15c0.68-0.837,0.783-2.17,0.783-4.994    C183.293,100.393,183.188,99.215,182.51,98.379z"/>
		<path fill="#BFBFBF" d="M199.4,112.604l-1.098-3.295h-6.616l-1.124,3.295h-3.792l6.771-18.618h2.852l6.799,18.618H199.4z     M195.061,99.478l-2.354,6.771h4.629L195.061,99.478z"/>
		<path fill="#BFBFBF" d="M215.56,110.826c-1.229,1.228-2.98,1.777-4.916,1.777h-6.72V93.985h6.72c1.936,0,3.688,0.55,4.916,1.777    c2.093,2.093,1.883,4.654,1.883,7.452C217.442,106.014,217.652,108.733,215.56,110.826z M213.023,98.379    c-0.627-0.758-1.465-1.15-2.72-1.15h-2.745v12.133h2.745c1.255,0,2.093-0.393,2.72-1.15c0.68-0.837,0.785-2.17,0.785-4.994    C213.808,100.393,213.703,99.215,213.023,98.379z"/>
	</g>
	<g>
		<path fill="#1B75BC" d="M86.592,78.95c1.852,0,3.596-0.354,5.231-1.065c1.634-0.709,3.071-1.667,4.306-2.87    s2.206-2.625,2.917-4.26c0.708-1.635,1.065-3.411,1.065-5.325h9.631c0,3.21-0.602,6.221-1.806,9.029    c-1.203,2.811-2.856,5.263-4.955,7.361c-2.099,2.101-4.553,3.751-7.361,4.955c-2.81,1.203-5.819,1.806-9.028,1.806    c-3.212,0-6.221-0.603-9.029-1.806c-2.811-1.204-5.265-2.854-7.362-4.955c-2.1-2.1-3.75-4.552-4.954-7.361    c-1.205-2.809-1.806-5.819-1.806-9.029c0-3.209,0.602-6.219,1.806-9.028c1.204-2.809,2.854-5.264,4.954-7.362    c2.099-2.099,4.552-3.75,7.362-4.955c2.809-1.204,5.817-1.805,9.029-1.805c3.147,0,6.079,0.571,8.797,1.713    c2.716,1.143,5.123,2.702,7.223,4.676l0.185,0.187l6.253,6.47l-10.216,10.29h-12.89l9.909-10.187    c-1.174-1.049-2.563-1.898-4.167-2.547c-1.606-0.647-3.303-0.973-5.093-0.973c-1.853,0-3.599,0.355-5.232,1.064    c-1.636,0.711-3.072,1.685-4.306,2.917c-1.235,1.236-2.208,2.672-2.916,4.307c-0.711,1.636-1.066,3.38-1.066,5.231    c0,1.853,0.354,3.598,1.066,5.232c0.708,1.636,1.681,3.072,2.916,4.305c1.233,1.237,2.67,2.209,4.306,2.918    C82.993,78.595,84.739,78.95,86.592,78.95z"/>
		<path fill="#1B75BC" d="M111.36,88.561V52.938l9.04-9.061v36.619h21.005v8.063L111.36,88.561L111.36,88.561z"/>
		<path fill="#1B75BC" d="M52.524,88.561v-19.38H36.851v19.38h-9.04V49.676l9.04-2.806v14.312h15.673V41.927l9.04-2.854v49.488    H52.524z"/>
		<path fill="#1B75BC" d="M200.391,88.951c-7.024,0-12.357-1.496-16.909-6.113l5.853-5.853c2.929,2.926,6.895,3.901,11.188,3.901    c5.333,0,8.194-2.017,8.194-5.724c0-1.625-0.455-2.992-1.433-3.901c-0.909-0.846-1.95-1.301-4.097-1.626l-5.593-0.779    c-3.968-0.585-6.895-1.821-8.976-3.837c-2.211-2.211-3.315-5.203-3.315-9.105c0-8.258,6.112-14.046,16.129-14.046    c6.372,0,10.989,1.561,14.956,5.398l-5.724,5.657c-2.926-2.797-6.438-3.187-9.495-3.187c-4.812,0-7.152,2.666-7.152,5.853    c0,1.17,0.392,2.406,1.366,3.316c0.909,0.845,2.404,1.561,4.292,1.821l5.462,0.779c4.228,0.585,6.895,1.755,8.846,3.578    c2.471,2.34,3.576,5.723,3.576,9.819C217.559,83.878,210.079,88.951,200.391,88.951z"/>
		<path fill="#1B75BC" d="M149.484,70.461c0.709,1.639,1.682,3.072,2.917,4.308c1.234,1.234,2.67,2.208,4.307,2.916    c1.636,0.711,3.38,1.064,5.232,1.064c1.852,0,3.596-0.354,5.23-1.064c1.636-0.708,3.071-1.682,4.308-2.916    c1.232-1.234,2.207-2.669,2.917-4.308c0.709-1.635,1.063-3.38,1.063-5.231c0-1.789-0.323-3.486-0.972-5.094    c-0.647-1.604-1.498-2.992-2.547-4.167l-10.188,9.909v-12.78l10.279-10.371l6.482,6.298l0.185,0.185    c1.976,2.101,3.534,4.507,4.677,7.225c1.143,2.717,1.715,5.647,1.715,8.797c0,3.21-0.604,6.221-1.807,9.028    c-1.204,2.812-2.856,5.266-4.954,7.361c-2.101,2.1-4.555,3.751-7.362,4.955c-2.811,1.204-5.819,1.806-9.028,1.806    c-3.212,0-6.221-0.602-9.029-1.806c-2.81-1.204-5.264-2.855-7.361-4.955c-2.101-2.097-3.75-4.551-4.954-7.361    c-1.204-2.809-1.808-5.818-1.808-9.028c0-3.209,0.604-6.22,1.808-9.028s2.854-5.263,4.954-7.363    c2.099-2.098,4.553-3.75,7.361-4.955c2.81-1.204,5.817-1.805,9.029-1.805v9.631c-1.915,0-3.69,0.356-5.324,1.065    c-1.637,0.709-3.057,1.683-4.261,2.917c-1.205,1.234-2.162,2.671-2.871,4.306c-0.71,1.636-1.065,3.38-1.065,5.232    C148.419,67.081,148.774,68.826,149.484,70.461z"/>
	</g>
</g>
</svg>
